<mxfile host="Electron" agent="Mozilla/5.0 (Windows NT 10.0; Win64; x64) AppleWebKit/537.36 (KHTML, like Gecko) draw.io/28.0.6 Chrome/138.0.7204.100 Electron/37.2.3 Safari/537.36" version="28.0.6">
  <diagram name="Page-1" id="Ax0tMdirHf45bOc4da1p">
    <mxGraphModel dx="2528" dy="999" grid="1" gridSize="10" guides="1" tooltips="1" connect="1" arrows="1" fold="1" page="1" pageScale="1" pageWidth="850" pageHeight="1100" math="0" shadow="0">
      <root>
        <mxCell id="0" />
        <mxCell id="1" parent="0" />
        <mxCell id="Ql_YwQ1lQ17wyng5smSQ-23" style="edgeStyle=orthogonalEdgeStyle;rounded=0;orthogonalLoop=1;jettySize=auto;html=1;movable=1;resizable=1;rotatable=1;deletable=1;editable=1;locked=0;connectable=1;" edge="1" parent="1" source="Ql_YwQ1lQ17wyng5smSQ-1" target="Ql_YwQ1lQ17wyng5smSQ-6">
          <mxGeometry relative="1" as="geometry">
            <Array as="points">
              <mxPoint x="50" y="310" />
            </Array>
          </mxGeometry>
        </mxCell>
        <mxCell id="Ql_YwQ1lQ17wyng5smSQ-24" value="GENERATES" style="edgeLabel;html=1;align=center;verticalAlign=middle;resizable=1;points=[];movable=1;rotatable=1;deletable=1;editable=1;locked=0;connectable=1;" vertex="1" connectable="0" parent="Ql_YwQ1lQ17wyng5smSQ-23">
          <mxGeometry x="0.4546" y="-2" relative="1" as="geometry">
            <mxPoint x="-33" y="93" as="offset" />
          </mxGeometry>
        </mxCell>
        <mxCell id="Ql_YwQ1lQ17wyng5smSQ-27" style="edgeStyle=orthogonalEdgeStyle;rounded=0;orthogonalLoop=1;jettySize=auto;html=1;entryX=0.901;entryY=0.003;entryDx=0;entryDy=0;entryPerimeter=0;endArrow=none;endFill=0;movable=1;resizable=1;rotatable=1;deletable=1;editable=1;locked=0;connectable=1;" edge="1" parent="1" source="Ql_YwQ1lQ17wyng5smSQ-1" target="Ql_YwQ1lQ17wyng5smSQ-4">
          <mxGeometry relative="1" as="geometry">
            <mxPoint x="1000" y="390" as="targetPoint" />
            <Array as="points">
              <mxPoint x="1020" y="310" />
            </Array>
          </mxGeometry>
        </mxCell>
        <mxCell id="Ql_YwQ1lQ17wyng5smSQ-28" value="VERIFY JWT" style="edgeLabel;html=1;align=center;verticalAlign=middle;resizable=1;points=[];movable=1;rotatable=1;deletable=1;editable=1;locked=0;connectable=1;" vertex="1" connectable="0" parent="Ql_YwQ1lQ17wyng5smSQ-27">
          <mxGeometry x="0.9285" relative="1" as="geometry">
            <mxPoint x="1" y="-1" as="offset" />
          </mxGeometry>
        </mxCell>
        <mxCell id="Ql_YwQ1lQ17wyng5smSQ-1" value="System" style="shape=umlActor;verticalLabelPosition=bottom;verticalAlign=top;html=1;outlineConnect=0;movable=1;resizable=1;rotatable=1;deletable=1;editable=1;locked=0;connectable=1;shadow=0;strokeWidth=2;" vertex="1" parent="1">
          <mxGeometry x="515.75" y="290" width="37.5" height="75" as="geometry" />
        </mxCell>
        <mxCell id="Ql_YwQ1lQ17wyng5smSQ-4" value="&amp;nbsp;" style="rounded=0;whiteSpace=wrap;html=1;movable=1;resizable=1;rotatable=1;deletable=1;editable=1;locked=0;connectable=1;strokeWidth=2;" vertex="1" parent="1">
          <mxGeometry x="-73" y="421" width="1215" height="451.75" as="geometry" />
        </mxCell>
        <mxCell id="Ql_YwQ1lQ17wyng5smSQ-5" value="" style="rounded=0;whiteSpace=wrap;html=1;movable=0;resizable=0;rotatable=0;deletable=0;editable=0;locked=1;connectable=0;" vertex="1" parent="1">
          <mxGeometry x="-40" y="470" width="180" height="211.75" as="geometry" />
        </mxCell>
        <mxCell id="Ql_YwQ1lQ17wyng5smSQ-6" value="Analytics &amp;amp; Reporting" style="text;html=1;align=center;verticalAlign=middle;whiteSpace=wrap;rounded=0;movable=0;resizable=0;rotatable=0;deletable=0;editable=0;locked=1;connectable=0;" vertex="1" parent="1">
          <mxGeometry x="-15" y="433" width="130" height="30" as="geometry" />
        </mxCell>
        <mxCell id="Ql_YwQ1lQ17wyng5smSQ-7" value="Communication &amp;amp; Events" style="text;html=1;align=center;verticalAlign=middle;whiteSpace=wrap;rounded=0;movable=0;resizable=0;rotatable=0;deletable=0;editable=0;locked=1;connectable=0;" vertex="1" parent="1">
          <mxGeometry x="168.5" y="433" width="155" height="30" as="geometry" />
        </mxCell>
        <mxCell id="Ql_YwQ1lQ17wyng5smSQ-8" value="" style="rounded=0;whiteSpace=wrap;html=1;movable=0;resizable=0;rotatable=0;deletable=0;editable=0;locked=1;connectable=0;" vertex="1" parent="1">
          <mxGeometry x="156" y="470" width="180" height="211.75" as="geometry" />
        </mxCell>
        <mxCell id="Ql_YwQ1lQ17wyng5smSQ-9" value="Virtual Healthcare Services" style="text;html=1;align=center;verticalAlign=middle;whiteSpace=wrap;rounded=0;movable=0;resizable=0;rotatable=0;deletable=0;editable=0;locked=1;connectable=0;" vertex="1" parent="1">
          <mxGeometry x="362.5" y="433" width="155" height="30" as="geometry" />
        </mxCell>
        <mxCell id="Ql_YwQ1lQ17wyng5smSQ-10" value="" style="rounded=0;whiteSpace=wrap;html=1;movable=0;resizable=0;rotatable=0;deletable=0;editable=0;locked=1;connectable=0;" vertex="1" parent="1">
          <mxGeometry x="350" y="470" width="180" height="211.75" as="geometry" />
        </mxCell>
        <mxCell id="Ql_YwQ1lQ17wyng5smSQ-11" value="" style="rounded=0;whiteSpace=wrap;html=1;movable=0;resizable=0;rotatable=0;deletable=0;editable=0;locked=1;connectable=0;" vertex="1" parent="1">
          <mxGeometry x="541" y="470" width="180" height="211.75" as="geometry" />
        </mxCell>
        <mxCell id="Ql_YwQ1lQ17wyng5smSQ-12" value="Medical Records" style="text;html=1;align=center;verticalAlign=middle;whiteSpace=wrap;rounded=0;movable=0;resizable=0;rotatable=0;deletable=0;editable=0;locked=1;connectable=0;" vertex="1" parent="1">
          <mxGeometry x="566" y="433" width="130" height="30" as="geometry" />
        </mxCell>
        <mxCell id="Ql_YwQ1lQ17wyng5smSQ-13" value="Health Programs" style="text;html=1;align=center;verticalAlign=middle;whiteSpace=wrap;rounded=0;movable=0;resizable=0;rotatable=0;deletable=0;editable=0;locked=1;connectable=0;" vertex="1" parent="1">
          <mxGeometry x="749.5" y="433" width="155" height="30" as="geometry" />
        </mxCell>
        <mxCell id="Ql_YwQ1lQ17wyng5smSQ-14" value="" style="rounded=0;whiteSpace=wrap;html=1;movable=0;resizable=0;rotatable=0;deletable=0;editable=0;locked=1;connectable=0;" vertex="1" parent="1">
          <mxGeometry x="737" y="470" width="180" height="211.75" as="geometry" />
        </mxCell>
        <mxCell id="Ql_YwQ1lQ17wyng5smSQ-15" value="Authentication &amp;amp;&amp;nbsp;&lt;div&gt;Account Management&lt;/div&gt;" style="text;html=1;align=center;verticalAlign=middle;whiteSpace=wrap;rounded=0;movable=0;resizable=0;rotatable=0;deletable=0;editable=0;locked=1;connectable=0;" vertex="1" parent="1">
          <mxGeometry x="943.5" y="433" width="155" height="30" as="geometry" />
        </mxCell>
        <mxCell id="Ql_YwQ1lQ17wyng5smSQ-16" value="" style="rounded=0;whiteSpace=wrap;html=1;movable=0;resizable=0;rotatable=0;deletable=0;editable=0;locked=1;connectable=0;" vertex="1" parent="1">
          <mxGeometry x="931" y="470" width="180" height="211.75" as="geometry" />
        </mxCell>
        <mxCell id="Ql_YwQ1lQ17wyng5smSQ-72" style="edgeStyle=orthogonalEdgeStyle;rounded=0;orthogonalLoop=1;jettySize=auto;html=1;entryX=0.75;entryY=1;entryDx=0;entryDy=0;fillColor=#e51400;strokeColor=#B20000;movable=1;resizable=1;rotatable=1;deletable=1;editable=1;locked=0;connectable=1;" edge="1" parent="1" target="Ql_YwQ1lQ17wyng5smSQ-67">
          <mxGeometry relative="1" as="geometry">
            <mxPoint x="1021" y="920" as="sourcePoint" />
            <Array as="points">
              <mxPoint x="1021" y="810" />
              <mxPoint x="465" y="810" />
            </Array>
          </mxGeometry>
        </mxCell>
        <mxCell id="Ql_YwQ1lQ17wyng5smSQ-73" value="&amp;nbsp;Edit&amp;nbsp;" style="edgeLabel;html=1;align=center;verticalAlign=middle;resizable=1;points=[];movable=1;rotatable=1;deletable=1;editable=1;locked=0;connectable=1;" vertex="1" connectable="0" parent="Ql_YwQ1lQ17wyng5smSQ-72">
          <mxGeometry x="0.311" y="-1" relative="1" as="geometry">
            <mxPoint x="12" y="-1" as="offset" />
          </mxGeometry>
        </mxCell>
        <mxCell id="Ql_YwQ1lQ17wyng5smSQ-138" style="edgeStyle=orthogonalEdgeStyle;rounded=0;orthogonalLoop=1;jettySize=auto;html=1;fillColor=#e51400;strokeColor=#B20000;entryX=1;entryY=0.75;entryDx=0;entryDy=0;" edge="1" parent="1" target="Ql_YwQ1lQ17wyng5smSQ-134">
          <mxGeometry relative="1" as="geometry">
            <mxPoint x="1020" y="1040" as="sourcePoint" />
            <mxPoint x="1080" y="590" as="targetPoint" />
            <Array as="points">
              <mxPoint x="1020" y="1050" />
              <mxPoint x="1160" y="1050" />
              <mxPoint x="1160" y="541" />
            </Array>
          </mxGeometry>
        </mxCell>
        <mxCell id="Ql_YwQ1lQ17wyng5smSQ-139" style="edgeStyle=orthogonalEdgeStyle;rounded=0;orthogonalLoop=1;jettySize=auto;html=1;entryX=1;entryY=0.5;entryDx=0;entryDy=0;fillColor=#e51400;strokeColor=#B20000;" edge="1" parent="1" target="Ql_YwQ1lQ17wyng5smSQ-130">
          <mxGeometry relative="1" as="geometry">
            <mxPoint x="1021" y="920" as="sourcePoint" />
          </mxGeometry>
        </mxCell>
        <mxCell id="Ql_YwQ1lQ17wyng5smSQ-147" value="&amp;nbsp;Edit&amp;nbsp;" style="edgeLabel;html=1;align=center;verticalAlign=middle;resizable=0;points=[];" vertex="1" connectable="0" parent="Ql_YwQ1lQ17wyng5smSQ-139">
          <mxGeometry x="-0.0591" y="-1" relative="1" as="geometry">
            <mxPoint x="-4" y="-1" as="offset" />
          </mxGeometry>
        </mxCell>
        <mxCell id="Ql_YwQ1lQ17wyng5smSQ-140" style="edgeStyle=orthogonalEdgeStyle;rounded=0;orthogonalLoop=1;jettySize=auto;html=1;entryX=0.5;entryY=1;entryDx=0;entryDy=0;fillColor=#e51400;strokeColor=#B20000;" edge="1" parent="1" target="Ql_YwQ1lQ17wyng5smSQ-131">
          <mxGeometry relative="1" as="geometry">
            <mxPoint x="1021" y="920" as="sourcePoint" />
          </mxGeometry>
        </mxCell>
        <mxCell id="Ql_YwQ1lQ17wyng5smSQ-149" value="Add New" style="edgeLabel;html=1;align=center;verticalAlign=middle;resizable=0;points=[];" vertex="1" connectable="0" parent="Ql_YwQ1lQ17wyng5smSQ-140">
          <mxGeometry x="0.547" relative="1" as="geometry">
            <mxPoint y="-2" as="offset" />
          </mxGeometry>
        </mxCell>
        <mxCell id="Ql_YwQ1lQ17wyng5smSQ-161" style="edgeStyle=orthogonalEdgeStyle;rounded=0;orthogonalLoop=1;jettySize=auto;html=1;entryX=0.75;entryY=1;entryDx=0;entryDy=0;fillColor=#e51400;strokeColor=#B20000;" edge="1" parent="1" source="Ql_YwQ1lQ17wyng5smSQ-17" target="Ql_YwQ1lQ17wyng5smSQ-154">
          <mxGeometry relative="1" as="geometry">
            <Array as="points">
              <mxPoint x="1021" y="760" />
              <mxPoint x="90" y="760" />
            </Array>
          </mxGeometry>
        </mxCell>
        <mxCell id="Ql_YwQ1lQ17wyng5smSQ-17" value="Super Admin" style="shape=umlActor;verticalLabelPosition=bottom;verticalAlign=top;html=1;outlineConnect=0;movable=1;resizable=1;rotatable=1;deletable=1;editable=1;locked=0;connectable=1;" vertex="1" parent="1">
          <mxGeometry x="1002.25" y="930" width="37.5" height="75" as="geometry" />
        </mxCell>
        <mxCell id="Ql_YwQ1lQ17wyng5smSQ-40" style="edgeStyle=orthogonalEdgeStyle;rounded=0;orthogonalLoop=1;jettySize=auto;html=1;entryX=0.25;entryY=1;entryDx=0;entryDy=0;fillColor=#60a917;strokeColor=#2D7600;movable=1;resizable=1;rotatable=1;deletable=1;editable=1;locked=0;connectable=1;" edge="1" parent="1" target="Ql_YwQ1lQ17wyng5smSQ-34">
          <mxGeometry relative="1" as="geometry">
            <mxPoint x="50" y="920" as="sourcePoint" />
            <Array as="points">
              <mxPoint x="50" y="860" />
              <mxPoint x="224" y="860" />
            </Array>
          </mxGeometry>
        </mxCell>
        <mxCell id="Ql_YwQ1lQ17wyng5smSQ-82" value="&amp;nbsp;Respond&amp;nbsp;" style="edgeLabel;html=1;align=center;verticalAlign=middle;resizable=1;points=[];movable=1;rotatable=1;deletable=1;editable=1;locked=0;connectable=1;" vertex="1" connectable="0" parent="Ql_YwQ1lQ17wyng5smSQ-40">
          <mxGeometry x="-0.2695" y="-1" relative="1" as="geometry">
            <mxPoint as="offset" />
          </mxGeometry>
        </mxCell>
        <mxCell id="Ql_YwQ1lQ17wyng5smSQ-52" style="edgeStyle=orthogonalEdgeStyle;rounded=0;orthogonalLoop=1;jettySize=auto;html=1;entryX=0;entryY=0.75;entryDx=0;entryDy=0;fillColor=#60a917;strokeColor=#2D7600;movable=1;resizable=1;rotatable=1;deletable=1;editable=1;locked=0;connectable=1;" edge="1" parent="1" target="Ql_YwQ1lQ17wyng5smSQ-45">
          <mxGeometry relative="1" as="geometry">
            <mxPoint x="200" y="910" as="targetPoint" />
            <mxPoint x="50" y="910" as="sourcePoint" />
            <Array as="points">
              <mxPoint x="50" y="850" />
              <mxPoint x="180" y="850" />
              <mxPoint x="180" y="580" />
            </Array>
          </mxGeometry>
        </mxCell>
        <mxCell id="Ql_YwQ1lQ17wyng5smSQ-81" value="&amp;nbsp;Post&amp;nbsp;" style="edgeLabel;html=1;align=center;verticalAlign=middle;resizable=1;points=[];movable=1;rotatable=1;deletable=1;editable=1;locked=0;connectable=1;" vertex="1" connectable="0" parent="Ql_YwQ1lQ17wyng5smSQ-52">
          <mxGeometry x="-0.5029" y="1" relative="1" as="geometry">
            <mxPoint x="-1" as="offset" />
          </mxGeometry>
        </mxCell>
        <mxCell id="Ql_YwQ1lQ17wyng5smSQ-54" style="edgeStyle=orthogonalEdgeStyle;rounded=0;orthogonalLoop=1;jettySize=auto;html=1;entryX=0;entryY=0.5;entryDx=0;entryDy=0;fillColor=#60a917;strokeColor=#2D7600;movable=1;resizable=1;rotatable=1;deletable=1;editable=1;locked=0;connectable=1;" edge="1" parent="1" target="Ql_YwQ1lQ17wyng5smSQ-46">
          <mxGeometry relative="1" as="geometry">
            <mxPoint x="150" y="900" as="targetPoint" />
            <mxPoint x="50" y="920" as="sourcePoint" />
            <Array as="points">
              <mxPoint x="50" y="840" />
              <mxPoint x="170" y="840" />
              <mxPoint x="170" y="521" />
              <mxPoint x="196" y="521" />
            </Array>
          </mxGeometry>
        </mxCell>
        <mxCell id="Ql_YwQ1lQ17wyng5smSQ-80" value="&amp;nbsp;Post&amp;nbsp;" style="edgeLabel;html=1;align=center;verticalAlign=middle;resizable=1;points=[];movable=1;rotatable=1;deletable=1;editable=1;locked=0;connectable=1;" vertex="1" connectable="0" parent="Ql_YwQ1lQ17wyng5smSQ-54">
          <mxGeometry x="-0.5053" relative="1" as="geometry">
            <mxPoint x="-36" as="offset" />
          </mxGeometry>
        </mxCell>
        <mxCell id="Ql_YwQ1lQ17wyng5smSQ-74" style="edgeStyle=orthogonalEdgeStyle;rounded=0;orthogonalLoop=1;jettySize=auto;html=1;entryX=0.25;entryY=1;entryDx=0;entryDy=0;fillColor=#60a917;strokeColor=#2D7600;movable=1;resizable=1;rotatable=1;deletable=1;editable=1;locked=0;connectable=1;" edge="1" parent="1" target="Ql_YwQ1lQ17wyng5smSQ-67">
          <mxGeometry relative="1" as="geometry">
            <mxPoint x="70" y="970" as="sourcePoint" />
            <Array as="points">
              <mxPoint x="190" y="970" />
              <mxPoint x="190" y="900" />
              <mxPoint x="290" y="900" />
              <mxPoint x="290" y="830" />
              <mxPoint x="415" y="830" />
            </Array>
          </mxGeometry>
        </mxCell>
        <mxCell id="Ql_YwQ1lQ17wyng5smSQ-85" value="&amp;nbsp;Edit&amp;nbsp;" style="edgeLabel;html=1;align=center;verticalAlign=middle;resizable=1;points=[];movable=1;rotatable=1;deletable=1;editable=1;locked=0;connectable=1;" vertex="1" connectable="0" parent="Ql_YwQ1lQ17wyng5smSQ-74">
          <mxGeometry x="-0.735" y="1" relative="1" as="geometry">
            <mxPoint x="253" y="-304" as="offset" />
          </mxGeometry>
        </mxCell>
        <mxCell id="Ql_YwQ1lQ17wyng5smSQ-76" style="edgeStyle=orthogonalEdgeStyle;rounded=0;orthogonalLoop=1;jettySize=auto;html=1;entryX=0;entryY=0.5;entryDx=0;entryDy=0;fillColor=#60a917;strokeColor=#2D7600;movable=1;resizable=1;rotatable=1;deletable=1;editable=1;locked=0;connectable=1;" edge="1" parent="1" source="Ql_YwQ1lQ17wyng5smSQ-20" target="Ql_YwQ1lQ17wyng5smSQ-66">
          <mxGeometry relative="1" as="geometry">
            <Array as="points">
              <mxPoint x="180" y="950" />
              <mxPoint x="180" y="890" />
              <mxPoint x="290" y="890" />
              <mxPoint x="290" y="830" />
              <mxPoint x="370" y="830" />
              <mxPoint x="370" y="573" />
            </Array>
          </mxGeometry>
        </mxCell>
        <mxCell id="Ql_YwQ1lQ17wyng5smSQ-84" value="&amp;nbsp;Set&amp;nbsp;" style="edgeLabel;html=1;align=center;verticalAlign=middle;resizable=1;points=[];movable=1;rotatable=1;deletable=1;editable=1;locked=0;connectable=1;" vertex="1" connectable="0" parent="Ql_YwQ1lQ17wyng5smSQ-76">
          <mxGeometry x="-0.7482" relative="1" as="geometry">
            <mxPoint x="213" y="-210" as="offset" />
          </mxGeometry>
        </mxCell>
        <mxCell id="Ql_YwQ1lQ17wyng5smSQ-78" style="edgeStyle=orthogonalEdgeStyle;rounded=0;orthogonalLoop=1;jettySize=auto;html=1;entryX=0;entryY=0.5;entryDx=0;entryDy=0;fillColor=#60a917;strokeColor=#2D7600;movable=1;resizable=1;rotatable=1;deletable=1;editable=1;locked=0;connectable=1;" edge="1" parent="1" source="Ql_YwQ1lQ17wyng5smSQ-20" target="Ql_YwQ1lQ17wyng5smSQ-65">
          <mxGeometry relative="1" as="geometry">
            <Array as="points">
              <mxPoint x="170" y="940" />
              <mxPoint x="170" y="880" />
              <mxPoint x="290" y="880" />
              <mxPoint x="290" y="830" />
              <mxPoint x="360" y="830" />
              <mxPoint x="360" y="521" />
            </Array>
          </mxGeometry>
        </mxCell>
        <mxCell id="Ql_YwQ1lQ17wyng5smSQ-83" value="&amp;nbsp;Respond&amp;nbsp;" style="edgeLabel;html=1;align=center;verticalAlign=middle;resizable=1;points=[];movable=1;rotatable=1;deletable=1;editable=1;locked=0;connectable=1;" vertex="1" connectable="0" parent="Ql_YwQ1lQ17wyng5smSQ-78">
          <mxGeometry x="0.4019" relative="1" as="geometry">
            <mxPoint x="-249" y="227" as="offset" />
          </mxGeometry>
        </mxCell>
        <mxCell id="Ql_YwQ1lQ17wyng5smSQ-133" style="edgeStyle=orthogonalEdgeStyle;rounded=0;orthogonalLoop=1;jettySize=auto;html=1;entryX=1;entryY=0.25;entryDx=0;entryDy=0;fillColor=#60a917;strokeColor=#2D7600;" edge="1" parent="1" target="Ql_YwQ1lQ17wyng5smSQ-134">
          <mxGeometry relative="1" as="geometry">
            <mxPoint x="50" y="1040" as="sourcePoint" />
            <Array as="points">
              <mxPoint x="50" y="1070" />
              <mxPoint x="1180" y="1070" />
              <mxPoint x="1180" y="504" />
            </Array>
          </mxGeometry>
        </mxCell>
        <mxCell id="Ql_YwQ1lQ17wyng5smSQ-153" style="edgeStyle=orthogonalEdgeStyle;rounded=0;orthogonalLoop=1;jettySize=auto;html=1;entryX=0;entryY=0.5;entryDx=0;entryDy=0;fillColor=#60a917;strokeColor=#2D7600;" edge="1" parent="1" source="Ql_YwQ1lQ17wyng5smSQ-20" target="Ql_YwQ1lQ17wyng5smSQ-129">
          <mxGeometry relative="1" as="geometry">
            <Array as="points">
              <mxPoint x="-10" y="968" />
              <mxPoint x="-10" y="573" />
              <mxPoint y="573" />
            </Array>
          </mxGeometry>
        </mxCell>
        <mxCell id="Ql_YwQ1lQ17wyng5smSQ-160" value="View" style="edgeLabel;html=1;align=center;verticalAlign=middle;resizable=0;points=[];" vertex="1" connectable="0" parent="Ql_YwQ1lQ17wyng5smSQ-153">
          <mxGeometry x="0.7861" relative="1" as="geometry">
            <mxPoint x="7" as="offset" />
          </mxGeometry>
        </mxCell>
        <mxCell id="Ql_YwQ1lQ17wyng5smSQ-166" value="View" style="edgeLabel;html=1;align=center;verticalAlign=middle;resizable=0;points=[];" vertex="1" connectable="0" parent="Ql_YwQ1lQ17wyng5smSQ-153">
          <mxGeometry x="0.7861" relative="1" as="geometry">
            <mxPoint x="140" y="143" as="offset" />
          </mxGeometry>
        </mxCell>
        <mxCell id="Ql_YwQ1lQ17wyng5smSQ-156" style="edgeStyle=orthogonalEdgeStyle;rounded=0;orthogonalLoop=1;jettySize=auto;html=1;entryX=0;entryY=0.5;entryDx=0;entryDy=0;fillColor=#60a917;strokeColor=#2D7600;" edge="1" parent="1" source="Ql_YwQ1lQ17wyng5smSQ-20" target="Ql_YwQ1lQ17wyng5smSQ-155">
          <mxGeometry relative="1" as="geometry">
            <Array as="points">
              <mxPoint x="-20" y="968" />
              <mxPoint x="-20" y="521" />
            </Array>
          </mxGeometry>
        </mxCell>
        <mxCell id="Ql_YwQ1lQ17wyng5smSQ-159" value="View" style="edgeLabel;html=1;align=center;verticalAlign=middle;resizable=0;points=[];" vertex="1" connectable="0" parent="Ql_YwQ1lQ17wyng5smSQ-156">
          <mxGeometry x="0.8449" y="-2" relative="1" as="geometry">
            <mxPoint x="-1" y="2" as="offset" />
          </mxGeometry>
        </mxCell>
        <mxCell id="Ql_YwQ1lQ17wyng5smSQ-157" style="edgeStyle=orthogonalEdgeStyle;rounded=0;orthogonalLoop=1;jettySize=auto;html=1;entryX=0;entryY=0.5;entryDx=0;entryDy=0;fillColor=#60a917;strokeColor=#2D7600;" edge="1" parent="1" source="Ql_YwQ1lQ17wyng5smSQ-20" target="Ql_YwQ1lQ17wyng5smSQ-154">
          <mxGeometry relative="1" as="geometry">
            <Array as="points">
              <mxPoint y="968" />
              <mxPoint y="622" />
            </Array>
          </mxGeometry>
        </mxCell>
        <mxCell id="Ql_YwQ1lQ17wyng5smSQ-158" value="Generate" style="edgeLabel;html=1;align=center;verticalAlign=middle;resizable=0;points=[];" vertex="1" connectable="0" parent="Ql_YwQ1lQ17wyng5smSQ-157">
          <mxGeometry x="0.7357" y="-2" relative="1" as="geometry">
            <mxPoint x="18" as="offset" />
          </mxGeometry>
        </mxCell>
        <mxCell id="Ql_YwQ1lQ17wyng5smSQ-165" value="Generate" style="edgeLabel;html=1;align=center;verticalAlign=middle;resizable=0;points=[];" vertex="1" connectable="0" parent="Ql_YwQ1lQ17wyng5smSQ-157">
          <mxGeometry x="0.7357" y="-2" relative="1" as="geometry">
            <mxPoint x="88" y="62" as="offset" />
          </mxGeometry>
        </mxCell>
        <mxCell id="Ql_YwQ1lQ17wyng5smSQ-20" value="Admin" style="shape=umlActor;verticalLabelPosition=bottom;verticalAlign=top;html=1;outlineConnect=0;movable=1;resizable=1;rotatable=1;deletable=1;editable=1;locked=0;connectable=1;" vertex="1" parent="1">
          <mxGeometry x="31.25" y="930" width="37.5" height="75" as="geometry" />
        </mxCell>
        <mxCell id="Ql_YwQ1lQ17wyng5smSQ-42" style="edgeStyle=orthogonalEdgeStyle;rounded=0;orthogonalLoop=1;jettySize=auto;html=1;entryX=0.75;entryY=1;entryDx=0;entryDy=0;fillColor=#e3c800;strokeColor=#B09500;movable=1;resizable=1;rotatable=1;deletable=1;editable=1;locked=0;connectable=1;" edge="1" parent="1" target="Ql_YwQ1lQ17wyng5smSQ-34">
          <mxGeometry relative="1" as="geometry">
            <mxPoint x="715" y="920" as="sourcePoint" />
            <Array as="points">
              <mxPoint x="715" y="860" />
              <mxPoint x="270" y="860" />
            </Array>
          </mxGeometry>
        </mxCell>
        <mxCell id="Ql_YwQ1lQ17wyng5smSQ-44" value="&amp;nbsp;Inquire&amp;nbsp;" style="edgeLabel;html=1;align=center;verticalAlign=middle;resizable=1;points=[];movable=1;rotatable=1;deletable=1;editable=1;locked=0;connectable=1;" vertex="1" connectable="0" parent="Ql_YwQ1lQ17wyng5smSQ-42">
          <mxGeometry x="0.4224" relative="1" as="geometry">
            <mxPoint x="53" y="10" as="offset" />
          </mxGeometry>
        </mxCell>
        <mxCell id="Ql_YwQ1lQ17wyng5smSQ-60" style="edgeStyle=orthogonalEdgeStyle;rounded=0;orthogonalLoop=1;jettySize=auto;html=1;entryX=1;entryY=0.5;entryDx=0;entryDy=0;fillColor=#e3c800;strokeColor=#B09500;movable=1;resizable=1;rotatable=1;deletable=1;editable=1;locked=0;connectable=1;" edge="1" parent="1" target="Ql_YwQ1lQ17wyng5smSQ-45">
          <mxGeometry relative="1" as="geometry">
            <mxPoint x="715" y="920" as="sourcePoint" />
            <Array as="points">
              <mxPoint x="715" y="850" />
              <mxPoint x="310" y="850" />
              <mxPoint x="310" y="573" />
            </Array>
          </mxGeometry>
        </mxCell>
        <mxCell id="Ql_YwQ1lQ17wyng5smSQ-62" value="&amp;nbsp;View&amp;nbsp;" style="edgeLabel;html=1;align=center;verticalAlign=middle;resizable=1;points=[];movable=1;rotatable=1;deletable=1;editable=1;locked=0;connectable=1;" vertex="1" connectable="0" parent="Ql_YwQ1lQ17wyng5smSQ-60">
          <mxGeometry x="0.2553" relative="1" as="geometry">
            <mxPoint x="52" y="6" as="offset" />
          </mxGeometry>
        </mxCell>
        <mxCell id="Ql_YwQ1lQ17wyng5smSQ-63" style="edgeStyle=orthogonalEdgeStyle;rounded=0;orthogonalLoop=1;jettySize=auto;html=1;entryX=1;entryY=0.5;entryDx=0;entryDy=0;fillColor=#e3c800;strokeColor=#B09500;movable=1;resizable=1;rotatable=1;deletable=1;editable=1;locked=0;connectable=1;" edge="1" parent="1" target="Ql_YwQ1lQ17wyng5smSQ-46">
          <mxGeometry relative="1" as="geometry">
            <mxPoint x="715" y="920" as="sourcePoint" />
            <Array as="points">
              <mxPoint x="715" y="840" />
              <mxPoint x="320" y="840" />
              <mxPoint x="320" y="521" />
            </Array>
          </mxGeometry>
        </mxCell>
        <mxCell id="Ql_YwQ1lQ17wyng5smSQ-64" value="&amp;nbsp;View&amp;nbsp;" style="edgeLabel;html=1;align=center;verticalAlign=middle;resizable=1;points=[];movable=1;rotatable=1;deletable=1;editable=1;locked=0;connectable=1;" vertex="1" connectable="0" parent="Ql_YwQ1lQ17wyng5smSQ-63">
          <mxGeometry x="-0.156" relative="1" as="geometry">
            <mxPoint x="-50" as="offset" />
          </mxGeometry>
        </mxCell>
        <mxCell id="Ql_YwQ1lQ17wyng5smSQ-68" style="edgeStyle=orthogonalEdgeStyle;rounded=0;orthogonalLoop=1;jettySize=auto;html=1;entryX=1;entryY=0.5;entryDx=0;entryDy=0;fillColor=#e3c800;strokeColor=#B09500;movable=1;resizable=1;rotatable=1;deletable=1;editable=1;locked=0;connectable=1;" edge="1" parent="1" target="Ql_YwQ1lQ17wyng5smSQ-65">
          <mxGeometry relative="1" as="geometry">
            <mxPoint x="715" y="920" as="sourcePoint" />
            <Array as="points">
              <mxPoint x="715" y="820" />
              <mxPoint x="520" y="820" />
              <mxPoint x="520" y="521" />
            </Array>
          </mxGeometry>
        </mxCell>
        <mxCell id="Ql_YwQ1lQ17wyng5smSQ-70" value="&amp;nbsp;Apply&amp;nbsp;" style="edgeLabel;html=1;align=center;verticalAlign=middle;resizable=1;points=[];movable=1;rotatable=1;deletable=1;editable=1;locked=0;connectable=1;" vertex="1" connectable="0" parent="Ql_YwQ1lQ17wyng5smSQ-68">
          <mxGeometry x="-0.127" relative="1" as="geometry">
            <mxPoint x="3" as="offset" />
          </mxGeometry>
        </mxCell>
        <mxCell id="Ql_YwQ1lQ17wyng5smSQ-69" style="edgeStyle=orthogonalEdgeStyle;rounded=0;orthogonalLoop=1;jettySize=auto;html=1;entryX=1;entryY=0.5;entryDx=0;entryDy=0;fillColor=#e3c800;strokeColor=#B09500;movable=1;resizable=1;rotatable=1;deletable=1;editable=1;locked=0;connectable=1;" edge="1" parent="1" target="Ql_YwQ1lQ17wyng5smSQ-66">
          <mxGeometry relative="1" as="geometry">
            <mxPoint x="630" y="910" as="targetPoint" />
            <mxPoint x="715" y="920" as="sourcePoint" />
            <Array as="points">
              <mxPoint x="715" y="830" />
              <mxPoint x="510" y="830" />
              <mxPoint x="510" y="573" />
            </Array>
          </mxGeometry>
        </mxCell>
        <mxCell id="Ql_YwQ1lQ17wyng5smSQ-71" value="&amp;nbsp;View&amp;nbsp;" style="edgeLabel;html=1;align=center;verticalAlign=middle;resizable=1;points=[];movable=1;rotatable=1;deletable=1;editable=1;locked=0;connectable=1;" vertex="1" connectable="0" parent="Ql_YwQ1lQ17wyng5smSQ-69">
          <mxGeometry x="-0.2164" y="-1" relative="1" as="geometry">
            <mxPoint as="offset" />
          </mxGeometry>
        </mxCell>
        <mxCell id="Ql_YwQ1lQ17wyng5smSQ-95" style="edgeStyle=orthogonalEdgeStyle;rounded=0;orthogonalLoop=1;jettySize=auto;html=1;entryX=0.75;entryY=1;entryDx=0;entryDy=0;fillColor=#e3c800;strokeColor=#B09500;movable=1;resizable=1;rotatable=1;deletable=1;editable=1;locked=0;connectable=1;" edge="1" parent="1" target="Ql_YwQ1lQ17wyng5smSQ-86">
          <mxGeometry relative="1" as="geometry">
            <mxPoint x="715" y="920" as="sourcePoint" />
            <Array as="points">
              <mxPoint x="715" y="800" />
              <mxPoint x="671" y="800" />
            </Array>
          </mxGeometry>
        </mxCell>
        <mxCell id="Ql_YwQ1lQ17wyng5smSQ-97" value="Input" style="edgeLabel;html=1;align=center;verticalAlign=middle;resizable=1;points=[];movable=1;rotatable=1;deletable=1;editable=1;locked=0;connectable=1;" vertex="1" connectable="0" parent="Ql_YwQ1lQ17wyng5smSQ-95">
          <mxGeometry x="0.8442" y="1" relative="1" as="geometry">
            <mxPoint x="2" y="-3" as="offset" />
          </mxGeometry>
        </mxCell>
        <mxCell id="Ql_YwQ1lQ17wyng5smSQ-96" style="edgeStyle=orthogonalEdgeStyle;rounded=0;orthogonalLoop=1;jettySize=auto;html=1;entryX=1;entryY=0.5;entryDx=0;entryDy=0;fillColor=#e3c800;strokeColor=#B09500;movable=1;resizable=1;rotatable=1;deletable=1;editable=1;locked=0;connectable=1;" edge="1" parent="1" target="Ql_YwQ1lQ17wyng5smSQ-87">
          <mxGeometry relative="1" as="geometry">
            <mxPoint x="715" y="920" as="sourcePoint" />
            <Array as="points">
              <mxPoint x="715" y="790" />
              <mxPoint x="710" y="790" />
              <mxPoint x="710" y="545" />
            </Array>
          </mxGeometry>
        </mxCell>
        <mxCell id="Ql_YwQ1lQ17wyng5smSQ-98" value="&amp;nbsp;View&amp;nbsp;" style="edgeLabel;html=1;align=center;verticalAlign=middle;resizable=1;points=[];movable=1;rotatable=1;deletable=1;editable=1;locked=0;connectable=1;" vertex="1" connectable="0" parent="Ql_YwQ1lQ17wyng5smSQ-96">
          <mxGeometry x="0.8623" y="-1" relative="1" as="geometry">
            <mxPoint x="-1" y="1" as="offset" />
          </mxGeometry>
        </mxCell>
        <mxCell id="Ql_YwQ1lQ17wyng5smSQ-120" style="edgeStyle=orthogonalEdgeStyle;rounded=0;orthogonalLoop=1;jettySize=auto;html=1;entryX=0.75;entryY=1;entryDx=0;entryDy=0;fillColor=#e3c800;strokeColor=#B09500;movable=1;resizable=1;rotatable=1;deletable=1;editable=1;locked=0;connectable=1;" edge="1" parent="1" source="Ql_YwQ1lQ17wyng5smSQ-21" target="Ql_YwQ1lQ17wyng5smSQ-101">
          <mxGeometry relative="1" as="geometry" />
        </mxCell>
        <mxCell id="Ql_YwQ1lQ17wyng5smSQ-122" value="Register" style="edgeLabel;html=1;align=center;verticalAlign=middle;resizable=1;points=[];movable=1;rotatable=1;deletable=1;editable=1;locked=0;connectable=1;" vertex="1" connectable="0" parent="Ql_YwQ1lQ17wyng5smSQ-120">
          <mxGeometry x="0.537" y="1" relative="1" as="geometry">
            <mxPoint x="3" as="offset" />
          </mxGeometry>
        </mxCell>
        <mxCell id="Ql_YwQ1lQ17wyng5smSQ-125" style="edgeStyle=orthogonalEdgeStyle;rounded=0;orthogonalLoop=1;jettySize=auto;html=1;entryX=1;entryY=0.5;entryDx=0;entryDy=0;fillColor=#e3c800;strokeColor=#B09500;movable=1;resizable=1;rotatable=1;deletable=1;editable=1;locked=0;connectable=1;" edge="1" parent="1" source="Ql_YwQ1lQ17wyng5smSQ-21" target="Ql_YwQ1lQ17wyng5smSQ-99">
          <mxGeometry relative="1" as="geometry">
            <Array as="points">
              <mxPoint x="910" y="968" />
              <mxPoint x="910" y="521" />
            </Array>
          </mxGeometry>
        </mxCell>
        <mxCell id="Ql_YwQ1lQ17wyng5smSQ-126" value="View" style="edgeLabel;html=1;align=center;verticalAlign=middle;resizable=1;points=[];movable=1;rotatable=1;deletable=1;editable=1;locked=0;connectable=1;" vertex="1" connectable="0" parent="Ql_YwQ1lQ17wyng5smSQ-125">
          <mxGeometry x="0.8994" relative="1" as="geometry">
            <mxPoint x="-5" as="offset" />
          </mxGeometry>
        </mxCell>
        <mxCell id="Ql_YwQ1lQ17wyng5smSQ-137" style="edgeStyle=orthogonalEdgeStyle;rounded=0;orthogonalLoop=1;jettySize=auto;html=1;entryX=1;entryY=0.5;entryDx=0;entryDy=0;fillColor=#e3c800;strokeColor=#B09500;" edge="1" parent="1" target="Ql_YwQ1lQ17wyng5smSQ-134">
          <mxGeometry relative="1" as="geometry">
            <mxPoint x="715" y="1040" as="sourcePoint" />
            <Array as="points">
              <mxPoint x="715" y="1060" />
              <mxPoint x="1170" y="1060" />
              <mxPoint x="1170" y="523" />
            </Array>
          </mxGeometry>
        </mxCell>
        <mxCell id="Ql_YwQ1lQ17wyng5smSQ-21" value="User" style="shape=umlActor;verticalLabelPosition=bottom;verticalAlign=top;html=1;outlineConnect=0;movable=1;resizable=1;rotatable=1;deletable=1;editable=1;locked=0;connectable=1;" vertex="1" parent="1">
          <mxGeometry x="696" y="930" width="37.5" height="75" as="geometry" />
        </mxCell>
        <mxCell id="Ql_YwQ1lQ17wyng5smSQ-56" style="edgeStyle=orthogonalEdgeStyle;rounded=0;orthogonalLoop=1;jettySize=auto;html=1;entryX=0.5;entryY=1;entryDx=0;entryDy=0;fillColor=#1ba1e2;strokeColor=#006EAF;movable=1;resizable=1;rotatable=1;deletable=1;editable=1;locked=0;connectable=1;" edge="1" parent="1" source="Ql_YwQ1lQ17wyng5smSQ-22" target="Ql_YwQ1lQ17wyng5smSQ-34">
          <mxGeometry relative="1" as="geometry" />
        </mxCell>
        <mxCell id="Ql_YwQ1lQ17wyng5smSQ-57" value="&amp;nbsp;Notify&amp;nbsp;" style="edgeLabel;html=1;align=center;verticalAlign=middle;resizable=1;points=[];movable=1;rotatable=1;deletable=1;editable=1;locked=0;connectable=1;" vertex="1" connectable="0" parent="Ql_YwQ1lQ17wyng5smSQ-56">
          <mxGeometry x="-0.7399" y="-1" relative="1" as="geometry">
            <mxPoint as="offset" />
          </mxGeometry>
        </mxCell>
        <mxCell id="Ql_YwQ1lQ17wyng5smSQ-105" style="edgeStyle=orthogonalEdgeStyle;rounded=0;orthogonalLoop=1;jettySize=auto;html=1;entryX=0.5;entryY=1;entryDx=0;entryDy=0;fillColor=#b1ddf0;strokeColor=#10739e;movable=1;resizable=1;rotatable=1;deletable=1;editable=1;locked=0;connectable=1;" edge="1" parent="1" source="Ql_YwQ1lQ17wyng5smSQ-22" target="Ql_YwQ1lQ17wyng5smSQ-101">
          <mxGeometry relative="1" as="geometry">
            <Array as="points">
              <mxPoint x="660" y="968" />
              <mxPoint x="660" y="890" />
              <mxPoint x="827" y="890" />
            </Array>
          </mxGeometry>
        </mxCell>
        <mxCell id="Ql_YwQ1lQ17wyng5smSQ-108" value="&amp;nbsp;Notify&amp;nbsp;" style="edgeLabel;html=1;align=center;verticalAlign=middle;resizable=1;points=[];movable=1;rotatable=1;deletable=1;editable=1;locked=0;connectable=1;" vertex="1" connectable="0" parent="Ql_YwQ1lQ17wyng5smSQ-105">
          <mxGeometry x="-0.8887" y="-1" relative="1" as="geometry">
            <mxPoint y="-2" as="offset" />
          </mxGeometry>
        </mxCell>
        <mxCell id="Ql_YwQ1lQ17wyng5smSQ-111" style="edgeStyle=orthogonalEdgeStyle;rounded=0;orthogonalLoop=1;jettySize=auto;html=1;entryX=0.5;entryY=1;entryDx=0;entryDy=0;exitX=0.5;exitY=0;exitDx=0;exitDy=0;exitPerimeter=0;fillColor=#b1ddf0;strokeColor=#10739e;movable=1;resizable=1;rotatable=1;deletable=1;editable=1;locked=0;connectable=1;" edge="1" parent="1" source="Ql_YwQ1lQ17wyng5smSQ-22" target="Ql_YwQ1lQ17wyng5smSQ-67">
          <mxGeometry relative="1" as="geometry">
            <Array as="points">
              <mxPoint x="344" y="890" />
              <mxPoint x="440" y="890" />
            </Array>
          </mxGeometry>
        </mxCell>
        <mxCell id="Ql_YwQ1lQ17wyng5smSQ-112" value="&amp;nbsp;Notify&amp;nbsp;" style="edgeLabel;html=1;align=center;verticalAlign=middle;resizable=1;points=[];movable=1;rotatable=1;deletable=1;editable=1;locked=0;connectable=1;" vertex="1" connectable="0" parent="Ql_YwQ1lQ17wyng5smSQ-111">
          <mxGeometry x="-0.5507" relative="1" as="geometry">
            <mxPoint x="49" y="-150" as="offset" />
          </mxGeometry>
        </mxCell>
        <mxCell id="Ql_YwQ1lQ17wyng5smSQ-22" value="SMS Service&lt;div&gt;(to User)&lt;/div&gt;" style="shape=umlActor;verticalLabelPosition=bottom;verticalAlign=top;html=1;outlineConnect=0;movable=1;resizable=1;rotatable=1;deletable=1;editable=1;locked=0;connectable=1;" vertex="1" parent="1">
          <mxGeometry x="325" y="930" width="37.5" height="75" as="geometry" />
        </mxCell>
        <mxCell id="Ql_YwQ1lQ17wyng5smSQ-25" style="edgeStyle=orthogonalEdgeStyle;rounded=0;orthogonalLoop=1;jettySize=auto;html=1;entryX=0.578;entryY=0.004;entryDx=0;entryDy=0;entryPerimeter=0;endArrow=none;endFill=0;movable=1;resizable=1;rotatable=1;deletable=1;editable=1;locked=0;connectable=1;" edge="1" parent="1">
          <mxGeometry relative="1" as="geometry">
            <mxPoint x="553.25" y="347.0114942528736" as="sourcePoint" />
            <mxPoint x="627.27" y="418.80700000000013" as="targetPoint" />
            <Array as="points">
              <mxPoint x="627" y="347" />
            </Array>
          </mxGeometry>
        </mxCell>
        <mxCell id="Ql_YwQ1lQ17wyng5smSQ-26" value="INPUT" style="edgeLabel;html=1;align=center;verticalAlign=middle;resizable=1;points=[];movable=1;rotatable=1;deletable=1;editable=1;locked=0;connectable=1;" vertex="1" connectable="0" parent="Ql_YwQ1lQ17wyng5smSQ-25">
          <mxGeometry x="0.484" y="1" relative="1" as="geometry">
            <mxPoint y="19" as="offset" />
          </mxGeometry>
        </mxCell>
        <mxCell id="Ql_YwQ1lQ17wyng5smSQ-29" style="edgeStyle=orthogonalEdgeStyle;rounded=0;orthogonalLoop=1;jettySize=auto;html=1;entryX=0.425;entryY=-0.003;entryDx=0;entryDy=0;entryPerimeter=0;endArrow=none;endFill=0;movable=1;resizable=1;rotatable=1;deletable=1;editable=1;locked=0;connectable=1;" edge="1" parent="1" source="Ql_YwQ1lQ17wyng5smSQ-1" target="Ql_YwQ1lQ17wyng5smSQ-4">
          <mxGeometry relative="1" as="geometry">
            <Array as="points">
              <mxPoint x="496" y="348" />
              <mxPoint x="441" y="348" />
            </Array>
          </mxGeometry>
        </mxCell>
        <mxCell id="Ql_YwQ1lQ17wyng5smSQ-30" value="DISPLAY&amp;nbsp;" style="edgeLabel;html=1;align=center;verticalAlign=middle;resizable=1;points=[];movable=1;rotatable=1;deletable=1;editable=1;locked=0;connectable=1;" vertex="1" connectable="0" parent="Ql_YwQ1lQ17wyng5smSQ-29">
          <mxGeometry x="0.7837" y="-1" relative="1" as="geometry">
            <mxPoint x="4" y="-2" as="offset" />
          </mxGeometry>
        </mxCell>
        <mxCell id="Ql_YwQ1lQ17wyng5smSQ-31" style="edgeStyle=orthogonalEdgeStyle;rounded=0;orthogonalLoop=1;jettySize=auto;html=1;exitX=0.25;exitY=0;exitDx=0;exitDy=0;endArrow=none;endFill=0;movable=1;resizable=1;rotatable=1;deletable=1;editable=1;locked=0;connectable=1;" edge="1" parent="1" source="Ql_YwQ1lQ17wyng5smSQ-4" target="Ql_YwQ1lQ17wyng5smSQ-1">
          <mxGeometry relative="1" as="geometry">
            <mxPoint x="510" y="330" as="targetPoint" />
            <Array as="points">
              <mxPoint x="240" y="420" />
              <mxPoint x="240" y="330" />
            </Array>
          </mxGeometry>
        </mxCell>
        <mxCell id="Ql_YwQ1lQ17wyng5smSQ-152" value="SOCKET.IO" style="edgeLabel;html=1;align=center;verticalAlign=middle;resizable=0;points=[];" vertex="1" connectable="0" parent="Ql_YwQ1lQ17wyng5smSQ-31">
          <mxGeometry x="-0.8368" y="1" relative="1" as="geometry">
            <mxPoint x="2" y="1" as="offset" />
          </mxGeometry>
        </mxCell>
        <mxCell id="Ql_YwQ1lQ17wyng5smSQ-32" style="edgeStyle=orthogonalEdgeStyle;rounded=0;orthogonalLoop=1;jettySize=auto;html=1;exitX=0.74;exitY=0.001;exitDx=0;exitDy=0;endArrow=none;endFill=0;exitPerimeter=0;movable=1;resizable=1;rotatable=1;deletable=1;editable=1;locked=0;connectable=1;" edge="1" parent="1" source="Ql_YwQ1lQ17wyng5smSQ-4">
          <mxGeometry relative="1" as="geometry">
            <mxPoint x="553" y="330" as="targetPoint" />
            <Array as="points">
              <mxPoint x="824" y="330" />
            </Array>
          </mxGeometry>
        </mxCell>
        <mxCell id="Ql_YwQ1lQ17wyng5smSQ-127" value="REGISTER" style="edgeLabel;html=1;align=center;verticalAlign=middle;resizable=1;points=[];movable=1;rotatable=1;deletable=1;editable=1;locked=0;connectable=1;" vertex="1" connectable="0" parent="Ql_YwQ1lQ17wyng5smSQ-32">
          <mxGeometry x="-0.8769" relative="1" as="geometry">
            <mxPoint as="offset" />
          </mxGeometry>
        </mxCell>
        <mxCell id="Ql_YwQ1lQ17wyng5smSQ-58" style="edgeStyle=orthogonalEdgeStyle;rounded=0;orthogonalLoop=1;jettySize=auto;html=1;exitX=0.5;exitY=0;exitDx=0;exitDy=0;entryX=0.511;entryY=0.986;entryDx=0;entryDy=0;fillColor=#1ba1e2;strokeColor=#006EAF;entryPerimeter=0;movable=1;resizable=1;rotatable=1;deletable=1;editable=1;locked=0;connectable=1;" edge="1" parent="1" source="Ql_YwQ1lQ17wyng5smSQ-34" target="Ql_YwQ1lQ17wyng5smSQ-45">
          <mxGeometry relative="1" as="geometry" />
        </mxCell>
        <mxCell id="Ql_YwQ1lQ17wyng5smSQ-34" value="FAQ" style="rounded=1;whiteSpace=wrap;html=1;movable=1;resizable=1;rotatable=1;deletable=1;editable=1;locked=0;connectable=1;" vertex="1" parent="1">
          <mxGeometry x="200.12" y="610" width="93.5" height="29.13" as="geometry" />
        </mxCell>
        <mxCell id="Ql_YwQ1lQ17wyng5smSQ-59" style="edgeStyle=orthogonalEdgeStyle;rounded=0;orthogonalLoop=1;jettySize=auto;html=1;exitX=0.5;exitY=0;exitDx=0;exitDy=0;fillColor=#1ba1e2;strokeColor=#006EAF;movable=1;resizable=1;rotatable=1;deletable=1;editable=1;locked=0;connectable=1;" edge="1" parent="1" source="Ql_YwQ1lQ17wyng5smSQ-45" target="Ql_YwQ1lQ17wyng5smSQ-46">
          <mxGeometry relative="1" as="geometry" />
        </mxCell>
        <mxCell id="Ql_YwQ1lQ17wyng5smSQ-45" value="Events" style="rounded=1;whiteSpace=wrap;html=1;movable=1;resizable=1;rotatable=1;deletable=1;editable=1;locked=0;connectable=1;" vertex="1" parent="1">
          <mxGeometry x="195.99" y="558" width="100" height="29.13" as="geometry" />
        </mxCell>
        <mxCell id="Ql_YwQ1lQ17wyng5smSQ-46" value="Seminars" style="rounded=1;whiteSpace=wrap;html=1;movable=1;resizable=1;rotatable=1;deletable=1;editable=1;locked=0;connectable=1;" vertex="1" parent="1">
          <mxGeometry x="195.99" y="506" width="100" height="29.13" as="geometry" />
        </mxCell>
        <mxCell id="Ql_YwQ1lQ17wyng5smSQ-65" value="Virtual Checkup" style="rounded=1;whiteSpace=wrap;html=1;movable=1;resizable=1;rotatable=1;deletable=1;editable=1;locked=0;connectable=1;" vertex="1" parent="1">
          <mxGeometry x="390" y="506" width="100" height="29.13" as="geometry" />
        </mxCell>
        <mxCell id="Ql_YwQ1lQ17wyng5smSQ-114" style="edgeStyle=orthogonalEdgeStyle;rounded=0;orthogonalLoop=1;jettySize=auto;html=1;exitX=0.5;exitY=0;exitDx=0;exitDy=0;entryX=0.5;entryY=1;entryDx=0;entryDy=0;fillColor=#b1ddf0;strokeColor=#10739e;movable=1;resizable=1;rotatable=1;deletable=1;editable=1;locked=0;connectable=1;" edge="1" parent="1" source="Ql_YwQ1lQ17wyng5smSQ-66" target="Ql_YwQ1lQ17wyng5smSQ-65">
          <mxGeometry relative="1" as="geometry" />
        </mxCell>
        <mxCell id="Ql_YwQ1lQ17wyng5smSQ-66" value="Schedule Slot" style="rounded=1;whiteSpace=wrap;html=1;movable=1;resizable=1;rotatable=1;deletable=1;editable=1;locked=0;connectable=1;" vertex="1" parent="1">
          <mxGeometry x="390" y="558" width="100" height="29.13" as="geometry" />
        </mxCell>
        <mxCell id="Ql_YwQ1lQ17wyng5smSQ-113" style="edgeStyle=orthogonalEdgeStyle;rounded=0;orthogonalLoop=1;jettySize=auto;html=1;exitX=0.5;exitY=0;exitDx=0;exitDy=0;entryX=0.5;entryY=1;entryDx=0;entryDy=0;fillColor=#b1ddf0;strokeColor=#10739e;movable=1;resizable=1;rotatable=1;deletable=1;editable=1;locked=0;connectable=1;" edge="1" parent="1" source="Ql_YwQ1lQ17wyng5smSQ-67" target="Ql_YwQ1lQ17wyng5smSQ-66">
          <mxGeometry relative="1" as="geometry" />
        </mxCell>
        <mxCell id="Ql_YwQ1lQ17wyng5smSQ-67" value="Content Management" style="rounded=1;whiteSpace=wrap;html=1;movable=1;resizable=1;rotatable=1;deletable=1;editable=1;locked=0;connectable=1;" vertex="1" parent="1">
          <mxGeometry x="390" y="610" width="100" height="29.13" as="geometry" />
        </mxCell>
        <mxCell id="Ql_YwQ1lQ17wyng5smSQ-86" value="Medical Information" style="rounded=1;whiteSpace=wrap;html=1;movable=1;resizable=1;rotatable=1;deletable=1;editable=1;locked=0;connectable=1;" vertex="1" parent="1">
          <mxGeometry x="596" y="587.13" width="100" height="40" as="geometry" />
        </mxCell>
        <mxCell id="Ql_YwQ1lQ17wyng5smSQ-87" value="Treatment Response" style="rounded=1;whiteSpace=wrap;html=1;movable=1;resizable=1;rotatable=1;deletable=1;editable=1;locked=0;connectable=1;" vertex="1" parent="1">
          <mxGeometry x="560" y="520" width="100" height="49.13" as="geometry" />
        </mxCell>
        <mxCell id="Ql_YwQ1lQ17wyng5smSQ-90" style="edgeStyle=orthogonalEdgeStyle;rounded=0;orthogonalLoop=1;jettySize=auto;html=1;entryX=0.25;entryY=1;entryDx=0;entryDy=0;fillColor=#60a917;strokeColor=#2D7600;movable=1;resizable=1;rotatable=1;deletable=1;editable=1;locked=0;connectable=1;" edge="1" parent="1" target="Ql_YwQ1lQ17wyng5smSQ-87">
          <mxGeometry relative="1" as="geometry">
            <mxPoint x="69" y="980" as="sourcePoint" />
            <mxPoint x="413.75" y="660" as="targetPoint" />
            <Array as="points">
              <mxPoint x="200" y="980" />
              <mxPoint x="200" y="910" />
              <mxPoint x="620" y="910" />
              <mxPoint x="620" y="640" />
              <mxPoint x="585" y="640" />
            </Array>
          </mxGeometry>
        </mxCell>
        <mxCell id="Ql_YwQ1lQ17wyng5smSQ-93" value="Send" style="edgeLabel;html=1;align=center;verticalAlign=middle;resizable=1;points=[];movable=1;rotatable=1;deletable=1;editable=1;locked=0;connectable=1;" vertex="1" connectable="0" parent="Ql_YwQ1lQ17wyng5smSQ-90">
          <mxGeometry x="0.8287" y="-1" relative="1" as="geometry">
            <mxPoint x="18" y="12" as="offset" />
          </mxGeometry>
        </mxCell>
        <mxCell id="Ql_YwQ1lQ17wyng5smSQ-92" style="edgeStyle=orthogonalEdgeStyle;rounded=0;orthogonalLoop=1;jettySize=auto;html=1;entryX=0.444;entryY=1.009;entryDx=0;entryDy=0;fillColor=#60a917;strokeColor=#2D7600;entryPerimeter=0;movable=1;resizable=1;rotatable=1;deletable=1;editable=1;locked=0;connectable=1;" edge="1" parent="1" target="Ql_YwQ1lQ17wyng5smSQ-86">
          <mxGeometry relative="1" as="geometry">
            <mxPoint x="68.75" y="980.13" as="sourcePoint" />
            <mxPoint x="630.75" y="627.13" as="targetPoint" />
            <Array as="points">
              <mxPoint x="200" y="980" />
              <mxPoint x="200" y="910" />
              <mxPoint x="640" y="910" />
              <mxPoint x="640" y="628" />
            </Array>
          </mxGeometry>
        </mxCell>
        <mxCell id="Ql_YwQ1lQ17wyng5smSQ-94" value="View" style="edgeLabel;html=1;align=center;verticalAlign=middle;resizable=1;points=[];movable=1;rotatable=1;deletable=1;editable=1;locked=0;connectable=1;" vertex="1" connectable="0" parent="Ql_YwQ1lQ17wyng5smSQ-92">
          <mxGeometry x="0.9285" y="-1" relative="1" as="geometry">
            <mxPoint x="-1" y="8" as="offset" />
          </mxGeometry>
        </mxCell>
        <mxCell id="Ql_YwQ1lQ17wyng5smSQ-99" value="Program List" style="rounded=1;whiteSpace=wrap;html=1;movable=1;resizable=1;rotatable=1;deletable=1;editable=1;locked=0;connectable=1;" vertex="1" parent="1">
          <mxGeometry x="760" y="506" width="100" height="29.13" as="geometry" />
        </mxCell>
        <mxCell id="Ql_YwQ1lQ17wyng5smSQ-100" value="Medical Forms" style="rounded=1;whiteSpace=wrap;html=1;movable=1;resizable=1;rotatable=1;deletable=1;editable=1;locked=0;connectable=1;" vertex="1" parent="1">
          <mxGeometry x="800" y="558" width="100" height="29.13" as="geometry" />
        </mxCell>
        <mxCell id="Ql_YwQ1lQ17wyng5smSQ-106" style="edgeStyle=orthogonalEdgeStyle;rounded=0;orthogonalLoop=1;jettySize=auto;html=1;exitX=0.5;exitY=0;exitDx=0;exitDy=0;entryX=0.5;entryY=1;entryDx=0;entryDy=0;fillColor=#b1ddf0;strokeColor=#10739e;movable=1;resizable=1;rotatable=1;deletable=1;editable=1;locked=0;connectable=1;" edge="1" parent="1" source="Ql_YwQ1lQ17wyng5smSQ-101" target="Ql_YwQ1lQ17wyng5smSQ-100">
          <mxGeometry relative="1" as="geometry" />
        </mxCell>
        <mxCell id="Ql_YwQ1lQ17wyng5smSQ-101" value="Participants" style="rounded=1;whiteSpace=wrap;html=1;movable=1;resizable=1;rotatable=1;deletable=1;editable=1;locked=0;connectable=1;" vertex="1" parent="1">
          <mxGeometry x="777" y="610" width="100" height="29.13" as="geometry" />
        </mxCell>
        <mxCell id="Ql_YwQ1lQ17wyng5smSQ-102" style="edgeStyle=orthogonalEdgeStyle;rounded=0;orthogonalLoop=1;jettySize=auto;html=1;entryX=0.25;entryY=1;entryDx=0;entryDy=0;fillColor=#60a917;strokeColor=#2D7600;movable=1;resizable=1;rotatable=1;deletable=1;editable=1;locked=0;connectable=1;" edge="1" parent="1" target="Ql_YwQ1lQ17wyng5smSQ-101">
          <mxGeometry relative="1" as="geometry">
            <mxPoint x="68.75" y="992.26" as="sourcePoint" />
            <mxPoint x="640" y="639.13" as="targetPoint" />
            <Array as="points">
              <mxPoint x="210" y="992" />
              <mxPoint x="210" y="920" />
              <mxPoint x="650" y="920" />
              <mxPoint x="650" y="880" />
              <mxPoint x="802" y="880" />
            </Array>
          </mxGeometry>
        </mxCell>
        <mxCell id="Ql_YwQ1lQ17wyng5smSQ-123" value="View" style="edgeLabel;html=1;align=center;verticalAlign=middle;resizable=1;points=[];movable=1;rotatable=1;deletable=1;editable=1;locked=0;connectable=1;" vertex="1" connectable="0" parent="Ql_YwQ1lQ17wyng5smSQ-102">
          <mxGeometry x="0.8084" relative="1" as="geometry">
            <mxPoint as="offset" />
          </mxGeometry>
        </mxCell>
        <mxCell id="Ql_YwQ1lQ17wyng5smSQ-109" style="edgeStyle=orthogonalEdgeStyle;rounded=0;orthogonalLoop=1;jettySize=auto;html=1;entryX=0;entryY=0.5;entryDx=0;entryDy=0;fillColor=#60a917;strokeColor=#2D7600;movable=1;resizable=1;rotatable=1;deletable=1;editable=1;locked=0;connectable=1;" edge="1" parent="1" target="Ql_YwQ1lQ17wyng5smSQ-100">
          <mxGeometry relative="1" as="geometry">
            <mxPoint x="68.75" y="1005" as="sourcePoint" />
            <mxPoint x="802" y="651.74" as="targetPoint" />
            <Array as="points">
              <mxPoint x="210" y="1005" />
              <mxPoint x="210" y="920" />
              <mxPoint x="650" y="920" />
              <mxPoint x="650" y="880" />
              <mxPoint x="760" y="880" />
              <mxPoint x="760" y="573" />
              <mxPoint x="785" y="573" />
            </Array>
          </mxGeometry>
        </mxCell>
        <mxCell id="Ql_YwQ1lQ17wyng5smSQ-119" value="View" style="edgeLabel;html=1;align=center;verticalAlign=middle;resizable=1;points=[];movable=1;rotatable=1;deletable=1;editable=1;locked=0;connectable=1;" vertex="1" connectable="0" parent="Ql_YwQ1lQ17wyng5smSQ-109">
          <mxGeometry x="0.9604" y="-1" relative="1" as="geometry">
            <mxPoint x="-1" y="-2" as="offset" />
          </mxGeometry>
        </mxCell>
        <mxCell id="Ql_YwQ1lQ17wyng5smSQ-110" style="edgeStyle=orthogonalEdgeStyle;rounded=0;orthogonalLoop=1;jettySize=auto;html=1;entryX=0;entryY=1;entryDx=0;entryDy=0;fillColor=#60a917;strokeColor=#2D7600;movable=1;resizable=1;rotatable=1;deletable=1;editable=1;locked=0;connectable=1;" edge="1" parent="1" target="Ql_YwQ1lQ17wyng5smSQ-99">
          <mxGeometry relative="1" as="geometry">
            <mxPoint x="78.75" y="1019.13" as="sourcePoint" />
            <mxPoint x="810" y="587.13" as="targetPoint" />
            <Array as="points">
              <mxPoint x="220" y="1019" />
              <mxPoint x="220" y="920" />
              <mxPoint x="650" y="920" />
              <mxPoint x="650" y="880" />
              <mxPoint x="760" y="880" />
            </Array>
          </mxGeometry>
        </mxCell>
        <mxCell id="Ql_YwQ1lQ17wyng5smSQ-118" value="Add" style="edgeLabel;html=1;align=center;verticalAlign=middle;resizable=1;points=[];movable=1;rotatable=1;deletable=1;editable=1;locked=0;connectable=1;" vertex="1" connectable="0" parent="Ql_YwQ1lQ17wyng5smSQ-110">
          <mxGeometry x="0.9643" relative="1" as="geometry">
            <mxPoint y="-2" as="offset" />
          </mxGeometry>
        </mxCell>
        <mxCell id="Ql_YwQ1lQ17wyng5smSQ-115" style="edgeStyle=orthogonalEdgeStyle;rounded=0;orthogonalLoop=1;jettySize=auto;html=1;exitX=0.5;exitY=0;exitDx=0;exitDy=0;exitPerimeter=0;fillColor=#b1ddf0;strokeColor=#10739e;movable=1;resizable=1;rotatable=1;deletable=1;editable=1;locked=0;connectable=1;" edge="1" parent="1" source="Ql_YwQ1lQ17wyng5smSQ-22">
          <mxGeometry relative="1" as="geometry">
            <mxPoint x="377" y="940" as="sourcePoint" />
            <mxPoint x="570" y="569" as="targetPoint" />
            <Array as="points">
              <mxPoint x="344" y="890" />
              <mxPoint x="440" y="890" />
              <mxPoint x="440" y="800" />
              <mxPoint x="570" y="800" />
              <mxPoint x="570" y="569" />
            </Array>
          </mxGeometry>
        </mxCell>
        <mxCell id="Ql_YwQ1lQ17wyng5smSQ-117" value="Notify" style="edgeLabel;html=1;align=center;verticalAlign=middle;resizable=1;points=[];movable=1;rotatable=1;deletable=1;editable=1;locked=0;connectable=1;" vertex="1" connectable="0" parent="Ql_YwQ1lQ17wyng5smSQ-115">
          <mxGeometry x="0.6866" relative="1" as="geometry">
            <mxPoint y="2" as="offset" />
          </mxGeometry>
        </mxCell>
        <mxCell id="Ql_YwQ1lQ17wyng5smSQ-121" style="edgeStyle=orthogonalEdgeStyle;rounded=0;orthogonalLoop=1;jettySize=auto;html=1;fillColor=#e3c800;strokeColor=#B09500;movable=1;resizable=1;rotatable=1;deletable=1;editable=1;locked=0;connectable=1;" edge="1" parent="1" source="Ql_YwQ1lQ17wyng5smSQ-21">
          <mxGeometry relative="1" as="geometry">
            <mxPoint x="890" y="587" as="targetPoint" />
            <Array as="points">
              <mxPoint x="890" y="968" />
              <mxPoint x="890" y="587" />
            </Array>
          </mxGeometry>
        </mxCell>
        <mxCell id="Ql_YwQ1lQ17wyng5smSQ-124" value="Input" style="edgeLabel;html=1;align=center;verticalAlign=middle;resizable=1;points=[];movable=1;rotatable=1;deletable=1;editable=1;locked=0;connectable=1;" vertex="1" connectable="0" parent="Ql_YwQ1lQ17wyng5smSQ-121">
          <mxGeometry x="0.7275" relative="1" as="geometry">
            <mxPoint as="offset" />
          </mxGeometry>
        </mxCell>
        <mxCell id="Ql_YwQ1lQ17wyng5smSQ-129" value="Overview" style="rounded=1;whiteSpace=wrap;html=1;movable=1;resizable=1;rotatable=1;deletable=1;editable=1;locked=0;connectable=1;" vertex="1" parent="1">
          <mxGeometry x="15" y="558" width="100" height="29.13" as="geometry" />
        </mxCell>
        <mxCell id="Ql_YwQ1lQ17wyng5smSQ-130" value="Profile Management" style="rounded=1;whiteSpace=wrap;html=1;movable=1;resizable=1;rotatable=1;deletable=1;editable=1;locked=0;connectable=1;" vertex="1" parent="1">
          <mxGeometry x="961" y="576.13" width="120" height="30.87" as="geometry" />
        </mxCell>
        <mxCell id="Ql_YwQ1lQ17wyng5smSQ-131" value="User Registration" style="rounded=1;whiteSpace=wrap;html=1;movable=1;resizable=1;rotatable=1;deletable=1;editable=1;locked=0;connectable=1;" vertex="1" parent="1">
          <mxGeometry x="961" y="619.9999999999999" width="120" height="30.87" as="geometry" />
        </mxCell>
        <mxCell id="Ql_YwQ1lQ17wyng5smSQ-134" value="Jason Web Token Validation" style="rounded=1;whiteSpace=wrap;html=1;movable=1;resizable=1;rotatable=1;deletable=1;editable=1;locked=0;connectable=1;" vertex="1" parent="1">
          <mxGeometry x="961" y="485.13" width="120" height="74.87" as="geometry" />
        </mxCell>
        <mxCell id="Ql_YwQ1lQ17wyng5smSQ-141" style="edgeStyle=orthogonalEdgeStyle;rounded=0;orthogonalLoop=1;jettySize=auto;html=1;entryX=0.25;entryY=1;entryDx=0;entryDy=0;fillColor=#60a917;strokeColor=#2D7600;movable=1;resizable=1;rotatable=1;deletable=1;editable=1;locked=0;connectable=1;" edge="1" parent="1" target="Ql_YwQ1lQ17wyng5smSQ-131">
          <mxGeometry relative="1" as="geometry">
            <mxPoint x="78.72" y="1019.2600000000001" as="sourcePoint" />
            <mxPoint x="759.97" y="535.13" as="targetPoint" />
            <Array as="points">
              <mxPoint x="220" y="1019" />
              <mxPoint x="220" y="920" />
              <mxPoint x="650" y="920" />
              <mxPoint x="650" y="880" />
              <mxPoint x="991" y="880" />
            </Array>
          </mxGeometry>
        </mxCell>
        <mxCell id="Ql_YwQ1lQ17wyng5smSQ-143" value="Add New" style="edgeLabel;html=1;align=center;verticalAlign=middle;resizable=0;points=[];" vertex="1" connectable="0" parent="Ql_YwQ1lQ17wyng5smSQ-141">
          <mxGeometry x="0.8573" relative="1" as="geometry">
            <mxPoint y="2" as="offset" />
          </mxGeometry>
        </mxCell>
        <mxCell id="Ql_YwQ1lQ17wyng5smSQ-144" style="edgeStyle=orthogonalEdgeStyle;rounded=0;orthogonalLoop=1;jettySize=auto;html=1;entryX=0;entryY=0.5;entryDx=0;entryDy=0;fillColor=#60a917;strokeColor=#2D7600;movable=1;resizable=1;rotatable=1;deletable=1;editable=1;locked=0;connectable=1;" edge="1" parent="1" target="Ql_YwQ1lQ17wyng5smSQ-130">
          <mxGeometry relative="1" as="geometry">
            <mxPoint x="78.36" y="1019.1300000000002" as="sourcePoint" />
            <mxPoint x="990.64" y="650.87" as="targetPoint" />
            <Array as="points">
              <mxPoint x="220" y="1019" />
              <mxPoint x="220" y="920" />
              <mxPoint x="650" y="920" />
              <mxPoint x="650" y="880" />
              <mxPoint x="940" y="880" />
              <mxPoint x="940" y="592" />
            </Array>
          </mxGeometry>
        </mxCell>
        <mxCell id="Ql_YwQ1lQ17wyng5smSQ-146" value="View" style="edgeLabel;html=1;align=center;verticalAlign=middle;resizable=0;points=[];" vertex="1" connectable="0" parent="Ql_YwQ1lQ17wyng5smSQ-144">
          <mxGeometry x="0.7338" y="-1" relative="1" as="geometry">
            <mxPoint x="-1" y="-1" as="offset" />
          </mxGeometry>
        </mxCell>
        <mxCell id="Ql_YwQ1lQ17wyng5smSQ-154" value="Report" style="rounded=1;whiteSpace=wrap;html=1;movable=1;resizable=1;rotatable=1;deletable=1;editable=1;locked=0;connectable=1;" vertex="1" parent="1">
          <mxGeometry x="15" y="607" width="100" height="29.13" as="geometry" />
        </mxCell>
        <mxCell id="Ql_YwQ1lQ17wyng5smSQ-155" value="Error &amp;amp; Accuracy" style="rounded=1;whiteSpace=wrap;html=1;movable=1;resizable=1;rotatable=1;deletable=1;editable=1;locked=0;connectable=1;" vertex="1" parent="1">
          <mxGeometry x="-3" y="506" width="120" height="29.13" as="geometry" />
        </mxCell>
        <mxCell id="Ql_YwQ1lQ17wyng5smSQ-162" style="edgeStyle=orthogonalEdgeStyle;rounded=0;orthogonalLoop=1;jettySize=auto;html=1;fillColor=#e51400;strokeColor=#B20000;exitX=0.5;exitY=0;exitDx=0;exitDy=0;exitPerimeter=0;" edge="1" parent="1" source="Ql_YwQ1lQ17wyng5smSQ-17" target="Ql_YwQ1lQ17wyng5smSQ-155">
          <mxGeometry relative="1" as="geometry">
            <mxPoint x="1031" y="940" as="sourcePoint" />
            <mxPoint x="100" y="646" as="targetPoint" />
            <Array as="points">
              <mxPoint x="1020" y="930" />
              <mxPoint x="1020" y="760" />
              <mxPoint x="130" y="760" />
              <mxPoint x="130" y="520" />
            </Array>
          </mxGeometry>
        </mxCell>
        <mxCell id="Ql_YwQ1lQ17wyng5smSQ-164" style="edgeStyle=orthogonalEdgeStyle;rounded=0;orthogonalLoop=1;jettySize=auto;html=1;fillColor=#e51400;strokeColor=#B20000;exitX=0.5;exitY=0;exitDx=0;exitDy=0;exitPerimeter=0;entryX=1;entryY=0.5;entryDx=0;entryDy=0;" edge="1" parent="1" target="Ql_YwQ1lQ17wyng5smSQ-129">
          <mxGeometry relative="1" as="geometry">
            <mxPoint x="1021" y="930" as="sourcePoint" />
            <mxPoint x="117" y="520" as="targetPoint" />
            <Array as="points">
              <mxPoint x="1020" y="930" />
              <mxPoint x="1020" y="760" />
              <mxPoint x="130" y="760" />
              <mxPoint x="130" y="573" />
              <mxPoint x="115" y="573" />
            </Array>
          </mxGeometry>
        </mxCell>
      </root>
    </mxGraphModel>
  </diagram>
</mxfile>
